<svg xmlns="http://www.w3.org/2000/svg" width="0" height="0">
    <symbol id="git-icon">
        <g transform="translate(-897.906 -2135)">
            <circle id="Elipse_9" cx="18" cy="18" r="18" transform="translate(897.906 2135)" fill="#fff"/>
            <path class="icon-fill"
                  d="M18,0A18.234,18.234,0,0,0,0,18.455,18.423,18.423,0,0,0,12.311,35.967c.9.171,1.189-.4,1.189-.887V31.644c-5.007,1.117-6.049-2.178-6.049-2.178a4.857,4.857,0,0,0-2-2.7c-1.634-1.146.124-1.121.124-1.121a3.79,3.79,0,0,1,2.758,1.9,3.778,3.778,0,0,0,5.238,1.533,3.953,3.953,0,0,1,1.143-2.467c-4-.469-8.2-2.052-8.2-9.121a7.244,7.244,0,0,1,1.854-4.954,6.794,6.794,0,0,1,.175-4.884s1.512-.5,4.951,1.892a16.656,16.656,0,0,1,9.014,0c3.436-2.387,4.946-1.892,4.946-1.892a6.787,6.787,0,0,1,.177,4.884,7.224,7.224,0,0,1,1.853,4.954c0,7.088-4.21,8.649-8.219,9.106A4.47,4.47,0,0,1,22.5,30.016V35.08c0,.491.288,1.067,1.2.886A18.425,18.425,0,0,0,36,18.455,18.233,18.233,0,0,0,18,0Z"
                  transform="translate(898 2135)"/>
        </g>
    </symbol>
    <symbol id="linkedin-icon">
        <path class="icon-fill" d="M18,0A18,18,0,1,0,36,18,18,18,0,0,0,18,0ZM15,24H12V15h3ZM13.5,13.663A1.664,1.664,0,1,1,15.15,12,1.657,1.657,0,0,1,13.5,13.663ZM25.5,24h-3V19.709c0-2.822-3-2.583-3,0V24h-3V15h3v1.64c1.308-2.424,6-2.6,6,2.322Z"/>
    </symbol>
    <symbol id="twitter-icon">
        <g transform="translate(-897.906 -2234.684)">
            <circle id="Elipse_10" cx="18" cy="18" r="18" transform="translate(897.906 2235)" fill="#fff"/>
            <path class="icon-fill" d="M18,0A18,18,0,1,0,36,18,18,18,0,0,0,18,0Zm9.1,14.468A12.251,12.251,0,0,1,8.25,25.347a8.668,8.668,0,0,0,6.378-1.784A4.318,4.318,0,0,1,10.6,20.571a4.321,4.321,0,0,0,1.947-.073,4.315,4.315,0,0,1-3.456-4.28,4.3,4.3,0,0,0,1.951.538A4.315,4.315,0,0,1,9.711,11a12.229,12.229,0,0,0,8.88,4.5,4.312,4.312,0,0,1,7.343-3.93A8.594,8.594,0,0,0,28.67,10.53a4.326,4.326,0,0,1-1.895,2.384,8.6,8.6,0,0,0,2.473-.68A8.648,8.648,0,0,1,27.1,14.468Z"
                  transform="translate(898.333 2234.684)"/>
        </g>
    </symbol>
</svg>
