
<svg xmlns="http://www.w3.org/2000/svg" width="100%" height="auto" viewBox="0 0 56.045 38.154">
  <defs>
    <linearGradient id="linear-gradient" x1="0.5" y1="0.366" x2="0.5" y2="0.895" gradientUnits="objectBoundingBox">
      <stop offset="0" stop-color="#dee6f7"/>
      <stop offset="1" stop-color="#fff"/>
    </linearGradient>
  </defs>
  <g id="Grupo_34" data-name="Grupo 34" transform="translate(0 142.929)">
    <path id="Trazado_25" data-name="Trazado 25" d="M23.657-115.937,19.95-129.642h-.991L5.921-104.817H0l.467-4.934H3.48l14.255-27.341h-5.81l.519-4.934H22.831l9.287,32.318H37.47l1.326,4.934H26.675l-1.986-7.342H12.469l1.648-3.82Zm14.647-.03,0-.006,5.788.008,3.96,10.944H41.824l-2.3-7.139-5.407.005-1.1-3.805Zm-11.979-21.76a17.288,17.288,0,0,1,12.379-5.2,17.349,17.349,0,0,1,17.341,17.341,17.327,17.327,0,0,1-7.493,14.272l-1.743-4.928a12.624,12.624,0,0,0,4.43-9.576,12.574,12.574,0,0,0-12.634-12.5,12.661,12.661,0,0,0-10.588,5.682Z" fill-rule="evenodd" fill="url(#linear-gradient)"/>
  </g>
</svg>
